<svg xmlns="http://www.w3.org/2000/svg" viewBox="0 0 214.5 257.12"><defs><style>.cls-1{fill:#fc6803;}.cls-2{fill:#006837;}</style></defs><title>Ativo 1</title><g id="Camada_2" data-name="Camada 2"><g id="Camada_1-2" data-name="Camada 1"><path class="cls-1" d="M46.25,62.56,64.51,80.67a.65.65,0,0,1-.09,1C41.29,97.38,27.92,119,26.94,147.36c-.8,23.25,7.28,43.43,23.86,59.81,32.93,32.55,85.23,30,115.6-2.8,33.15-35.85,27.31-95.14-16.29-122.78A.38.38,0,0,1,150,81h0a27.85,27.85,0,0,1,41.5,2.42A107.27,107.27,0,1,1,3,174.9C-8.59,126.14,15,82.7,45.45,62.48A.64.64,0,0,1,46.25,62.56Z"/><path class="cls-2" d="M109.68,174.18h-4.6c-.56-12.2-1.13-24.36-1.7-36.63H98.77c-.57,12.17-1.12,24.28-1.69,36.54H92.22c-.09-1.18-.23-2.33-.26-3.47-.43-14.21-.92-28.42-1.2-42.63-.09-4.61,2.89-8.2,8.93-10.48.65-.24,1.3-1,1.28-1.47q-1.22-24.89-2.58-49.75-1.22-22.77-2.45-45.54c-.19-3.6-.46-7.19-.54-10.79A10.93,10.93,0,0,1,96,6c1.41-3.86,5.38-5.92,11.2-6,5.53,0,9.49,1.83,11.05,5.6a12.56,12.56,0,0,1,1,5.4c-.9,18.47-1.94,36.94-2.92,55.41Q115,91.19,113.82,116c0,.53.72,1.31,1.43,1.59,5.45,2.17,8.55,5.36,8.46,9.69-.34,15.31-.85,30.62-1.31,45.93a5.39,5.39,0,0,1-.23.95h-4.48c-.56-12.18-1.12-24.29-1.68-36.55h-4.62C110.83,149.69,110.26,161.85,109.68,174.18Z"/></g></g></svg>